<svg xmlns="http://www.w3.org/2000/svg" viewBox="0 0 128 128" role="img" aria-label="Cozy Digital"><title>Cozy Digital</title><defs><linearGradient id="mk-ring" x1="20" y1="20" x2="108" y2="108" gradientUnits="userSpaceOnUse"><stop offset="0" stop-color="#f0a43c"/><stop offset=".5" stop-color="#dc6a32"/><stop offset="1" stop-color="#b4432e"/></linearGradient></defs><rect width="128" height="128" rx="28" fill="#3a2519"/><path d="M83.29 24.45A44 44 0 1 0 105.85 50.4" fill="none" stroke="url(#mk-ring)" stroke-width="7.5" stroke-linecap="round"/><rect x="92" y="31.5" width="9" height="9" rx="1.8" fill="#dc6a32"/><rect x="103.5" y="23.5" width="7" height="7" rx="1.4" fill="#b4432e"/><rect x="86.25" y="21.75" width="5.5" height="5.5" rx="1.1" fill="#f0a43c"/><rect x="106" y="38" width="5" height="5" rx="1" fill="#b4432e"/><rect x="97.5" y="14.5" width="5" height="5" rx="1" fill="#b4432e"/><rect x="113" y="17" width="4" height="4" rx="0.8" fill="#dc6a32"/><rect x="115.8" y="29.3" width="3.4" height="3.4" rx="0.68" fill="#f0a43c"/><rect x="108.4" y="8.9" width="3.2" height="3.2" rx="0.64" fill="#b4432e"/><rect x="120.8" y="10.8" width="2.4" height="2.4" rx="0.48" fill="#b4432e"/><rect x="100.9" y="5.4" width="2.2" height="2.2" rx="0.44" fill="#dc6a32"/><path d="M81 3Q82.2 7.8 87 9Q82.2 10.2 81 15Q79.8 10.2 75 9Q79.8 7.8 81 3Z" fill="#e9a046"/></svg>
